<svg xmlns="http://www.w3.org/2000/svg" viewBox="0 0 512 512" width="100%" height="100%">
  <defs>
    <linearGradient id="huaweiGrad" x1="0%" y1="0%" x2="0%" y2="100%">
      <stop offset="0%" stop-color="#FF2442"/>
      <stop offset="100%" stop-color="#D7001E"/>
    </linearGradient>
  </defs>
  <rect width="512" height="512" rx="128" fill="url(#huaweiGrad)"/>
  <path fill="none" stroke="#FFFFFF" stroke-width="28" stroke-linecap="round" d="M190 200v-30c0-36.5 29.5-66 66-66s66 29.5 66 66v30"/>
  <!-- Bag handle inner / bag body accents -->
  <path fill="#FFFFFF" d="M140 200h232c11 0 20 9 20 20v180c0 16.6-13.4 30-30 30H150c-16.6 0-30-13.4-30-30V220c0-11 9-20 20-20z" opacity="0.15"/>
  <!-- Huawei AppGallery iconic petals / shopping bag element -->
  <path fill="#FFFFFF" d="M256 220c-19.9 0-36 16.1-36 36 0 28 36 54 36 54s36-26 36-54c0-19.9-16.1-36-36-36z"/>
  <circle cx="256" cy="360" r="14" fill="#FFFFFF"/>
</svg>
